<?xml version="1.0" standalone="no"?>
<!DOCTYPE svg PUBLIC "-//W3C//DTD SVG 20010904//EN"
 "http://www.w3.org/TR/2001/REC-SVG-20010904/DTD/svg10.dtd">
<svg version="1.0" xmlns="http://www.w3.org/2000/svg"
 width="700.000000pt" height="700.000000pt" viewBox="0 0 700.000000 700.000000"
 preserveAspectRatio="xMidYMid meet">
<metadata>
Created by potrace 1.11, written by Peter Selinger 2001-2013
</metadata>
<g transform="translate(0.000000,700.000000) scale(0.100000,-0.100000)"
fill="#000000" stroke="none">
<path d="M6020 6759 c-14 -5 -126 -111 -250 -234 l-225 -225 -77 25 c-196 64
-358 90 -568 89 -109 0 -266 -10 -279 -19 -4 -2 -27 -6 -51 -10 -65 -9 -233
-59 -336 -101 -307 -124 -592 -356 -778 -634 -58 -86 -142 -244 -176 -328
l-13 -34 -30 49 c-133 216 -398 499 -589 629 -24 16 -45 31 -48 34 -3 3 -34
24 -70 47 -270 171 -577 291 -870 339 -14 2 -52 9 -85 15 -40 7 -301 13 -767
16 -652 4 -710 3 -743 -13 -70 -33 -67 2 -62 -772 3 -600 6 -712 21 -802 78
-476 255 -860 561 -1219 62 -72 222 -227 289 -279 l28 -22 36 44 36 44 81 -56
c45 -32 82 -61 84 -65 1 -5 -33 -47 -76 -94 -129 -141 -192 -230 -280 -398
l-52 -100 -323 0 c-305 -1 -325 -2 -351 -20 -51 -38 -62 -90 -43 -213 25 -159
123 -323 252 -422 30 -24 54 -45 54 -49 0 -4 -12 -14 -27 -24 -104 -63 -209
-207 -257 -349 -35 -105 -40 -230 -12 -273 31 -48 42 -49 383 -50 177 0 324
-3 326 -5 3 -3 23 -43 46 -88 286 -578 902 -956 1556 -955 87 0 201 8 253 18
9 1 37 6 62 10 51 7 225 51 255 64 11 5 52 21 90 36 278 111 564 330 733 562
86 119 71 113 125 45 26 -34 65 -79 86 -101 l39 -40 -41 -42 -41 -42 59 -55
c216 -201 510 -354 800 -418 139 -31 219 -39 385 -39 122 1 251 9 290 20 8 2
26 6 40 9 81 14 196 45 245 66 11 4 36 14 55 21 85 30 243 113 335 174 260
174 458 398 597 677 26 53 48 100 48 103 0 4 6 21 14 38 30 72 37 92 65 205
40 158 54 261 55 417 1 337 -80 634 -251 918 -117 194 -304 400 -456 502 l-48
33 66 73 c65 72 185 230 185 244 0 4 9 20 20 36 60 84 184 385 205 496 2 15 7
39 10 53 5 26 9 44 24 140 14 83 6 411 -12 508 -19 95 -53 226 -78 294 l-17
46 224 224 c243 242 257 262 235 331 -19 56 -136 146 -250 192 -116 47 -295
66 -392 40 l-27 -7 10 54 c15 78 4 231 -22 308 -42 126 -143 280 -197 301 -43
16 -68 18 -93 8z m-2199 -3461 c44 -34 78 -65 77 -69 -3 -6 -49 -60 -142 -164
l-27 -30 -17 25 c-9 13 -35 44 -57 68 l-40 43 2 152 c1 84 2 154 2 155 1 2 28
-24 62 -57 33 -34 97 -89 140 -123z"/>
</g>
</svg>
